<mxfile host="app.diagrams.net" modified="2021-01-17T19:00:59.915Z" agent="5.0 (Windows NT 10.0; Win64; x64) AppleWebKit/537.36 (KHTML, like Gecko) Chrome/87.0.4280.141 Safari/537.36" etag="OWMzJPPkOMsvtlO3jWHA" version="14.1.8" type="github">
  <diagram id="DQMjWMftg6XXhIIY0UW6" name="第 1 页">
    <mxGraphModel dx="1215" dy="539" grid="1" gridSize="10" guides="1" tooltips="1" connect="1" arrows="1" fold="1" page="1" pageScale="1" pageWidth="827" pageHeight="1169" math="0" shadow="0">
      <root>
        <mxCell id="0" />
        <mxCell id="1" parent="0" />
        <mxCell id="kqzHPGBOGGSsXoFb0C3q-1" value="科研人员" style="shape=umlActor;verticalLabelPosition=bottom;verticalAlign=top;html=1;outlineConnect=0;strokeWidth=2;fontSize=15;" vertex="1" parent="1">
          <mxGeometry x="430" y="240" width="40" height="80" as="geometry" />
        </mxCell>
        <mxCell id="kqzHPGBOGGSsXoFb0C3q-2" value="超级管理员" style="shape=umlActor;verticalLabelPosition=bottom;verticalAlign=top;html=1;outlineConnect=0;strokeWidth=2;fontSize=15;" vertex="1" parent="1">
          <mxGeometry x="810" y="350" width="40" height="80" as="geometry" />
        </mxCell>
        <mxCell id="kqzHPGBOGGSsXoFb0C3q-5" value="本人科研信息查看" style="shape=ellipse;html=1;dashed=0;whitespace=wrap;perimeter=ellipsePerimeter;strokeWidth=2;fontSize=15;" vertex="1" parent="1">
          <mxGeometry x="570" y="250" width="130" height="50" as="geometry" />
        </mxCell>
        <mxCell id="kqzHPGBOGGSsXoFb0C3q-6" value="用户信息管理" style="shape=ellipse;html=1;dashed=0;whitespace=wrap;perimeter=ellipsePerimeter;strokeWidth=2;fontSize=15;" vertex="1" parent="1">
          <mxGeometry x="570" y="320" width="120" height="50" as="geometry" />
        </mxCell>
        <mxCell id="kqzHPGBOGGSsXoFb0C3q-8" value="权限管理" style="shape=ellipse;html=1;dashed=0;whitespace=wrap;perimeter=ellipsePerimeter;strokeWidth=2;fontSize=15;" vertex="1" parent="1">
          <mxGeometry x="730" y="230" width="120" height="50" as="geometry" />
        </mxCell>
        <mxCell id="kqzHPGBOGGSsXoFb0C3q-9" value="信息统计" style="shape=ellipse;html=1;dashed=0;whitespace=wrap;perimeter=ellipsePerimeter;strokeWidth=2;fontSize=15;" vertex="1" parent="1">
          <mxGeometry x="570" y="530" width="120" height="50" as="geometry" />
        </mxCell>
        <mxCell id="kqzHPGBOGGSsXoFb0C3q-10" value="科研成果申报" style="shape=ellipse;html=1;dashed=0;whitespace=wrap;perimeter=ellipsePerimeter;strokeWidth=2;fontSize=15;" vertex="1" parent="1">
          <mxGeometry x="570" y="180" width="120" height="50" as="geometry" />
        </mxCell>
        <mxCell id="kqzHPGBOGGSsXoFb0C3q-11" value="发布通知" style="shape=ellipse;html=1;dashed=0;whitespace=wrap;perimeter=ellipsePerimeter;strokeWidth=2;fontSize=15;" vertex="1" parent="1">
          <mxGeometry x="570" y="460" width="120" height="50" as="geometry" />
        </mxCell>
        <mxCell id="kqzHPGBOGGSsXoFb0C3q-12" value="" style="endArrow=classic;html=1;strokeWidth=2;exitX=1;exitY=0.3333333333333333;exitDx=0;exitDy=0;exitPerimeter=0;entryX=0;entryY=0.5;entryDx=0;entryDy=0;fontSize=15;" edge="1" parent="1" source="kqzHPGBOGGSsXoFb0C3q-1" target="kqzHPGBOGGSsXoFb0C3q-10">
          <mxGeometry width="50" height="50" relative="1" as="geometry">
            <mxPoint x="370" y="270" as="sourcePoint" />
            <mxPoint x="440" y="160" as="targetPoint" />
          </mxGeometry>
        </mxCell>
        <mxCell id="kqzHPGBOGGSsXoFb0C3q-13" value="" style="endArrow=classic;html=1;strokeWidth=2;exitX=1;exitY=0.3333333333333333;exitDx=0;exitDy=0;exitPerimeter=0;entryX=0;entryY=0.5;entryDx=0;entryDy=0;fontSize=15;" edge="1" parent="1" source="kqzHPGBOGGSsXoFb0C3q-1" target="kqzHPGBOGGSsXoFb0C3q-5">
          <mxGeometry width="50" height="50" relative="1" as="geometry">
            <mxPoint x="460" y="400" as="sourcePoint" />
            <mxPoint x="490" y="210" as="targetPoint" />
          </mxGeometry>
        </mxCell>
        <mxCell id="kqzHPGBOGGSsXoFb0C3q-14" value="" style="endArrow=classic;html=1;strokeWidth=2;exitX=1;exitY=0.3333333333333333;exitDx=0;exitDy=0;exitPerimeter=0;entryX=0;entryY=0.5;entryDx=0;entryDy=0;fontSize=15;" edge="1" parent="1" source="kqzHPGBOGGSsXoFb0C3q-1" target="kqzHPGBOGGSsXoFb0C3q-6">
          <mxGeometry width="50" height="50" relative="1" as="geometry">
            <mxPoint x="480" y="410" as="sourcePoint" />
            <mxPoint x="460" y="500" as="targetPoint" />
          </mxGeometry>
        </mxCell>
        <mxCell id="kqzHPGBOGGSsXoFb0C3q-17" value="" style="endArrow=classic;html=1;strokeWidth=2;exitX=0;exitY=0.3333333333333333;exitDx=0;exitDy=0;exitPerimeter=0;entryX=1;entryY=0.5;entryDx=0;entryDy=0;fontSize=15;" edge="1" parent="1" source="kqzHPGBOGGSsXoFb0C3q-2" target="kqzHPGBOGGSsXoFb0C3q-6">
          <mxGeometry width="50" height="50" relative="1" as="geometry">
            <mxPoint x="730" y="540" as="sourcePoint" />
            <mxPoint x="730" y="340" as="targetPoint" />
          </mxGeometry>
        </mxCell>
        <mxCell id="kqzHPGBOGGSsXoFb0C3q-18" value="" style="endArrow=classic;html=1;strokeWidth=2;exitX=0.5;exitY=0;exitDx=0;exitDy=0;exitPerimeter=0;entryX=0.5;entryY=1;entryDx=0;entryDy=0;fontSize=15;" edge="1" parent="1" source="kqzHPGBOGGSsXoFb0C3q-2" target="kqzHPGBOGGSsXoFb0C3q-8">
          <mxGeometry width="50" height="50" relative="1" as="geometry">
            <mxPoint x="960" y="240" as="sourcePoint" />
            <mxPoint x="890" y="140" as="targetPoint" />
          </mxGeometry>
        </mxCell>
        <mxCell id="kqzHPGBOGGSsXoFb0C3q-19" value="" style="endArrow=classic;html=1;strokeWidth=2;exitX=0;exitY=0.3333333333333333;exitDx=0;exitDy=0;exitPerimeter=0;entryX=1;entryY=0.5;entryDx=0;entryDy=0;fontSize=15;" edge="1" parent="1" source="kqzHPGBOGGSsXoFb0C3q-2" target="kqzHPGBOGGSsXoFb0C3q-23">
          <mxGeometry width="50" height="50" relative="1" as="geometry">
            <mxPoint x="1050" y="280" as="sourcePoint" />
            <mxPoint x="1040" y="180" as="targetPoint" />
          </mxGeometry>
        </mxCell>
        <mxCell id="kqzHPGBOGGSsXoFb0C3q-21" value="科研成果审批" style="shape=ellipse;html=1;dashed=0;whitespace=wrap;perimeter=ellipsePerimeter;strokeWidth=2;fontSize=15;" vertex="1" parent="1">
          <mxGeometry x="200" y="330" width="120" height="50" as="geometry" />
        </mxCell>
        <mxCell id="kqzHPGBOGGSsXoFb0C3q-22" value="院系科研信息查看" style="shape=ellipse;html=1;dashed=0;whitespace=wrap;perimeter=ellipsePerimeter;strokeWidth=2;fontSize=15;" vertex="1" parent="1">
          <mxGeometry x="170" y="200" width="130" height="50" as="geometry" />
        </mxCell>
        <mxCell id="kqzHPGBOGGSsXoFb0C3q-23" value="全校科研信息查看" style="shape=ellipse;html=1;dashed=0;whitespace=wrap;perimeter=ellipsePerimeter;strokeWidth=2;fontSize=15;" vertex="1" parent="1">
          <mxGeometry x="570" y="390" width="130" height="50" as="geometry" />
        </mxCell>
        <mxCell id="kqzHPGBOGGSsXoFb0C3q-24" value="学院管理员" style="shape=umlActor;verticalLabelPosition=bottom;verticalAlign=top;html=1;outlineConnect=0;strokeWidth=2;fontSize=15;" vertex="1" parent="1">
          <mxGeometry x="330" y="180" width="40" height="80" as="geometry" />
        </mxCell>
        <mxCell id="kqzHPGBOGGSsXoFb0C3q-27" value="科研处" style="shape=umlActor;verticalLabelPosition=bottom;verticalAlign=top;html=1;outlineConnect=0;strokeWidth=2;fontSize=15;" vertex="1" parent="1">
          <mxGeometry x="300" y="470" width="40" height="80" as="geometry" />
        </mxCell>
        <mxCell id="kqzHPGBOGGSsXoFb0C3q-28" value="学校领导" style="shape=umlActor;verticalLabelPosition=bottom;verticalAlign=top;html=1;outlineConnect=0;strokeWidth=2;fontSize=15;" vertex="1" parent="1">
          <mxGeometry x="414" y="470" width="40" height="80" as="geometry" />
        </mxCell>
        <mxCell id="kqzHPGBOGGSsXoFb0C3q-30" value="" style="endArrow=block;endSize=16;endFill=0;html=1;strokeWidth=2;exitX=1;exitY=0.3333333333333333;exitDx=0;exitDy=0;exitPerimeter=0;fontSize=15;" edge="1" parent="1" source="kqzHPGBOGGSsXoFb0C3q-24">
          <mxGeometry width="160" relative="1" as="geometry">
            <mxPoint x="160" y="300" as="sourcePoint" />
            <mxPoint x="420" y="260" as="targetPoint" />
          </mxGeometry>
        </mxCell>
        <mxCell id="kqzHPGBOGGSsXoFb0C3q-31" value="" style="endArrow=classic;html=1;strokeWidth=2;entryX=1;entryY=0.5;entryDx=0;entryDy=0;exitX=0;exitY=0.3333333333333333;exitDx=0;exitDy=0;exitPerimeter=0;fontSize=15;" edge="1" parent="1" source="kqzHPGBOGGSsXoFb0C3q-24" target="kqzHPGBOGGSsXoFb0C3q-22">
          <mxGeometry width="50" height="50" relative="1" as="geometry">
            <mxPoint x="330" y="70" as="sourcePoint" />
            <mxPoint x="240" y="180" as="targetPoint" />
          </mxGeometry>
        </mxCell>
        <mxCell id="kqzHPGBOGGSsXoFb0C3q-32" value="" style="endArrow=block;endSize=16;endFill=0;html=1;strokeWidth=2;exitX=0.5;exitY=0;exitDx=0;exitDy=0;exitPerimeter=0;fontSize=15;" edge="1" parent="1" source="kqzHPGBOGGSsXoFb0C3q-27">
          <mxGeometry width="160" relative="1" as="geometry">
            <mxPoint x="110" y="490" as="sourcePoint" />
            <mxPoint x="410" y="350" as="targetPoint" />
          </mxGeometry>
        </mxCell>
        <mxCell id="kqzHPGBOGGSsXoFb0C3q-33" value="" style="endArrow=classic;html=1;strokeWidth=2;exitX=0.5;exitY=0;exitDx=0;exitDy=0;exitPerimeter=0;entryX=0.5;entryY=1;entryDx=0;entryDy=0;fontSize=15;" edge="1" parent="1" source="kqzHPGBOGGSsXoFb0C3q-27" target="kqzHPGBOGGSsXoFb0C3q-21">
          <mxGeometry width="50" height="50" relative="1" as="geometry">
            <mxPoint x="160" y="600" as="sourcePoint" />
            <mxPoint x="210" y="550" as="targetPoint" />
          </mxGeometry>
        </mxCell>
        <mxCell id="kqzHPGBOGGSsXoFb0C3q-34" value="" style="endArrow=block;endSize=16;endFill=0;html=1;strokeWidth=2;exitX=0.5;exitY=0;exitDx=0;exitDy=0;exitPerimeter=0;fontSize=15;" edge="1" parent="1" source="kqzHPGBOGGSsXoFb0C3q-28">
          <mxGeometry width="160" relative="1" as="geometry">
            <mxPoint x="290" y="430" as="sourcePoint" />
            <mxPoint x="450" y="350" as="targetPoint" />
          </mxGeometry>
        </mxCell>
        <mxCell id="kqzHPGBOGGSsXoFb0C3q-36" value="" style="endArrow=classic;html=1;strokeWidth=2;exitX=1;exitY=0.3333333333333333;exitDx=0;exitDy=0;exitPerimeter=0;entryX=0;entryY=0.5;entryDx=0;entryDy=0;fontSize=15;" edge="1" parent="1" source="kqzHPGBOGGSsXoFb0C3q-28" target="kqzHPGBOGGSsXoFb0C3q-23">
          <mxGeometry width="50" height="50" relative="1" as="geometry">
            <mxPoint x="140" y="520" as="sourcePoint" />
            <mxPoint x="370" y="467" as="targetPoint" />
          </mxGeometry>
        </mxCell>
        <mxCell id="kqzHPGBOGGSsXoFb0C3q-37" value="" style="endArrow=classic;html=1;strokeWidth=2;exitX=0;exitY=0.3333333333333333;exitDx=0;exitDy=0;exitPerimeter=0;entryX=1;entryY=0.5;entryDx=0;entryDy=0;fontSize=15;" edge="1" parent="1" source="kqzHPGBOGGSsXoFb0C3q-2" target="kqzHPGBOGGSsXoFb0C3q-11">
          <mxGeometry width="50" height="50" relative="1" as="geometry">
            <mxPoint x="800" y="560" as="sourcePoint" />
            <mxPoint x="850" y="510" as="targetPoint" />
          </mxGeometry>
        </mxCell>
        <mxCell id="kqzHPGBOGGSsXoFb0C3q-38" value="" style="endArrow=classic;html=1;strokeWidth=2;exitX=0;exitY=0.3333333333333333;exitDx=0;exitDy=0;exitPerimeter=0;entryX=1;entryY=0.5;entryDx=0;entryDy=0;fontSize=15;" edge="1" parent="1" source="kqzHPGBOGGSsXoFb0C3q-2" target="kqzHPGBOGGSsXoFb0C3q-9">
          <mxGeometry width="50" height="50" relative="1" as="geometry">
            <mxPoint x="780" y="580" as="sourcePoint" />
            <mxPoint x="830" y="530" as="targetPoint" />
          </mxGeometry>
        </mxCell>
      </root>
    </mxGraphModel>
  </diagram>
</mxfile>
